<?xml version="1.0" encoding="UTF-8" standalone="no"?>
<svg
   width="300"
   height="300"
   viewBox="0 0 316 316"
   xmlns="http://www.w3.org/2000/svg">
  <path
     style="fill:#14b17a;fill-rule:evenodd;stroke-width:11.3717;stroke-miterlimit:10"
     d="M 0,0 H 317.00601 V 316.00601 H 0 Z" />
  <g
     transform="matrix(4.7747221,0,0,4.7747221,-598.10517,-595.99509)"
     style="display:inline">
    <path
       d="m 144.35234,181.69433 -1.0077,-0.7138 c -0.4343,-5.101 -2.01526,-8.1825 -2.86655,-9.7842 0.90341,-0.5919 2.39745,-1.9672 2.39745,-3.9345 0,-1.9673 -1.59828,-3.0118 -1.59828,-5.4492 0,-1.3405 0.4517,-2.4721 1.19878,-3.3426 -0.4865,-0.6964 -1.0598,-1.062 -1.89371,-1.062 -0.93815,0 -1.78943,0.7835 -1.78943,1.9673 0,0.6964 0.29534,1.4624 0.95552,1.7932 -0.46908,0.6441 -1.66782,0.7138 -2.328,-0.2611 h -0.0174 c 0,2.3328 2.46699,3.9519 2.46699,6.424 0,1.6017 -1.26824,3.1512 -3.10979,3.1512 -1.37248,0 -2.65809,-0.6442 -3.31827,-1.9151 1.49409,0.383 2.57122,-0.2089 2.57122,-1.532 0,-2.4199 -4.0132,-4.7702 -4.0132,-8.8788 0,-3.2208 2.46699,-5.014 5.29882,-5.014 2.57122,0 4.86443,1.1839 6.58443,4.1783 0.886,-0.6616 1.9632,-1.0446 3.0577,-1.2535 2.936,-0.5745 6.5496,-0.0522 9.312,-1.2361 1.2335,-0.5222 2.2585,-1.4624 2.2585,-2.5243 0,-0.5049 -0.2954,-0.8183 -0.7123,-0.8183 -0.2085,0 -0.5212,0.1045 -0.7123,0.5571 -0.5386,-0.47 -0.7123,-0.9749 -0.7123,-1.4624 0,-0.8356 0.2606,-1.2186 0.5559,-1.619 -0.2779,-0.7138 -1.1292,-0.8879 -1.7199,-0.1741 -0.7123,-1.3232 -0.278,-3.1512 1.5809,-3.7083 v -0.0174 c -2.189,-0.3656 -2.7623,-1.7235 -2.5191,-3.22072 0.2085,0.17409 0.4344,0.29596 0.6776,0.29596 0.3648,0 0.5733,-0.29596 0.5733,-0.71379 0,-0.43524 -0.2259,-1.13162 -1.3551,-1.89763 0.9903,-1.49722 2.7102,-1.72354 3.5789,-1.16644 l 0.0173,-0.0174 c -0.4343,-0.60933 -0.6601,-1.67131 0.0348,-2.73328 0.1737,0.24373 0.5733,0.57451 1.1814,0.57451 1.8241,0 1.8936,-2.00209 3.2835,-2.211 -0.0869,0.62674 0.0868,1.49721 0.8513,1.49721 1.0076,0 1.4767,-1.53203 1.7373,-2.47214 0.4343,0.24373 0.7644,0.67896 0.6949,1.4798 h 0.0174 l 0.608,-1.23607 c 0.5039,0.43523 0.6081,1.14902 0.4344,1.79317 -0.0348,0.1741 -0.1043,0.29596 -0.1043,0.38301 0,0.48747 1.4594,0.85307 1.4594,1.93245 0,0.1741 -0.0521,0.38301 -0.139,0.59193 l 3.3183,4.19568 c 0.2084,0.26114 0.2779,0.53969 0.2779,0.78342 0,0.87044 -0.7644,1.79314 -1.8589,1.79314 -1.0945,0 -1.4593,-0.5919 -1.5288,-0.8704 l -2.884,-1.4102 c -0.1737,0.27855 -0.3648,0.7312 -0.3648,1.2535 0,3.1859 4.4996,3.273 5.5768,7.4338 l 4.4475,-1.4798 c 3.1793,3.0989 6.5323,6.1107 8.6171,7.3468 l 1.3203,1.6713 h -3.9784 v -1.1664 l -1.0945,-0.296 c -1.6679,-2.6288 -3.9437,-4.0738 -5.1599,-4.4394 -1.4767,0.9053 -2.5886,1.8454 -3.8915,3.2904 2.1195,-0.1741 4.4822,0.0348 6.4628,0.4178 l -1.0424,8.9137 -0.8513,2.2806 -2.2411,1.9151 v -3.9346 h 1.1987 l -0.3301,-1.2535 c 0.9729,-2.6114 1.1119,-4.3523 1.1119,-5.2924 0,-0.296 -0.0174,-0.5745 -0.1042,-0.6616 -0.0869,-0.087 -0.4344,0 -0.7297,0.0871 -0.7992,0.2263 -2.1195,0.853 -3.8047,2.211 -1.5289,1.2534 -2.3454,1.8105 -4.4128,1.5842 -2.328,2.4199 -7.2446,3.569 -11.5531,3.5167 -0.3301,3.4993 -4.2044,5.5188 -4.2044,7.1901 0,0.592 0.5734,1.5669 1.8069,3.4297 1.3898,2.0717 2.6928,4.0738 4.3259,4.718 l 1.3898,1.6887 h -3.9958 l -0.0348,-1.2013 -1.1292,-0.6267 c -1.303,-2.4199 -3.3356,-5.0662 -6.1154,-7.5557 0.6776,-1.358 1.0424,-2.7507 1.0598,-4.0564 -1.2509,1.8976 -3.0924,1.915 -3.4225,3.36 -0.1216,0.5397 -0.0521,1.5843 0.2432,2.9422 0.4344,2.0543 0.8166,4.4917 2.7102,5.4318 l 1.3204,1.7235 h -3.9263 z"
       fill="#000000"
       id="path1-3" />
    <path
       d="m 137.47251,154.27433 c 0.83391,0 1.99791,0.1915 2.81445,0.9576 -1.92842,-0.8879 -4.81236,-0.296 -5.02084,2.0369 -0.33009,-0.3656 -0.43433,-0.8009 -0.46908,-1.1839 -0.7123,0.3308 -1.25086,1.3231 -1.38985,2.4025 -0.57331,-2.5592 1.49409,-4.2131 4.06532,-4.2131 z m 10.70183,2.7681 c 2.6755,-0.3307 6.3239,-0.0348 9.312,-1.5146 1.3899,-0.6964 2.8145,-1.8628 2.8145,-3.4296 0,-1.8977 -2.328,-3.7605 -2.328,-7.7995 0,-2.62882 1.164,-5.65806 4.239,-7.31196 -1.9458,1.68872 -2.8839,3.62117 -2.8839,5.98885 0,2.36771 0.9208,4.85721 4.0479,6.09331 2.2064,0.8705 4.2738,0.9053 5.1599,2.7507 -0.7818,-0.6267 -1.7895,-0.8356 -2.4844,-0.8356 -4.4996,0 -6.1848,8.4261 -11.4663,10.8112 1.1119,-2.9248 -2.2585,-3.8649 -5.3683,-3.7952 -2.5365,0.0522 -6.428,0.7486 -6.4628,4.7702 -0.7297,-2.6811 0.8165,-5.1532 5.4204,-5.7278 z m 20.7957,-13.649 c 0,-0.2437 0.139,-0.64413 0.139,-0.97491 0,-0.17409 -0.0348,-0.40042 -0.2606,-0.74861 -0.3127,-0.48746 -0.9208,-1.32312 -1.5115,-1.94986 -0.7818,-0.81824 -1.4593,-1.06197 -2.5017,-0.97493 0.8513,-0.47005 1.0597,-0.9227 1.0597,-1.41016 0,-0.43524 -0.2432,-0.88789 -0.6254,-1.32312 0.5559,0.10445 2.0327,0.71378 2.0327,1.51462 0,0.1741 -0.0869,0.31337 -0.2433,0.48747 l 3.5615,4.45682 c -0.1216,0.19151 -0.3995,0.10446 -0.6428,0.10446 -0.1563,0 -0.2432,0.10445 -0.2432,0.26114 0,0.29598 0.2432,0.67898 0.3822,0.88788 -0.1042,0.0696 -0.3127,0.1567 -0.5386,0.1567 -0.2953,-0.0174 -0.608,-0.1219 -0.608,-0.4875 z"
       fill="#006a4a"
       id="path2" />
  </g>
</svg>
